<?xml version="1.0" encoding="utf-8"?>
<!-- Generator: Adobe Illustrator 16.0.0, SVG Export Plug-In . SVG Version: 6.00 Build 0)  -->
<!DOCTYPE svg PUBLIC "-//W3C//DTD SVG 1.1//EN" "http://www.w3.org/Graphics/SVG/1.1/DTD/svg11.dtd" [
	<!ENTITY ns_flows "http://ns.adobe.com/Flows/1.0/">
	<!ENTITY ns_extend "http://ns.adobe.com/Extensibility/1.0/">
	<!ENTITY ns_ai "http://ns.adobe.com/AdobeIllustrator/10.0/">
	<!ENTITY ns_graphs "http://ns.adobe.com/Graphs/1.0/">
]>
<svg version="1.1" id="Ebene_1" xmlns:x="&ns_extend;" xmlns:i="&ns_ai;" xmlns:graph="&ns_graphs;"
	 xmlns="http://www.w3.org/2000/svg" xmlns:xlink="http://www.w3.org/1999/xlink" xmlns:a="http://ns.adobe.com/AdobeSVGViewerExtensions/3.0/"
	 x="0px" y="0px" width="659px" height="259px" viewBox="28.5 206.5 659 259" enable-background="new 28.5 206.5 659 259"
	 xml:space="preserve">
<g id="EU_Parlament">
</g>
<g id="Hettich">
</g>
<g id="Tui.com">
</g>
<g id="Tui.com_claim">
</g>
<g id="Rally_the_world">
</g>
<g id="TUI">
</g>
<g id="Coca_Cola">
</g>
<g id="Kanton_Basel">
</g>
<g id="Auswärtiges_Amt">
</g>
<g id="Bundesanstalt_für_Ernährung">
</g>
<g id="Bundesmin_des_Inneren">
</g>
<g id="Bundesmin_für_Bildung">
</g>
<g id="Bundesmin_für_Ernährung">
</g>
<g id="Bundesmin_für_Arbeit">
</g>
<g id="Bundesamt_für_Bevölkerung">
</g>
<g id="Bundesmin_für_Familie">
</g>
<g id="Bundeskanzlerin">
</g>
<g id="Bundesregierung">
</g>
<g id="Schleswig_Holstein">
</g>
<g id="Europäische_Zentralbank">
</g>
<g id="Berliner_Flughafen">
</g>
<g id="Studieren_in_Fernost">
</g>
<g id="AVD">
</g>
<g id="Johanniter">
</g>
<g id="WWF_1_">
</g>
<g id="TU_Berlin">
</g>
<g id="Bank_of_Scotland">
</g>
<g id="ZDF_tivi">
</g>
<g id="ZDF">
</g>
<g id="Zanox">
</g>
<g id="West_LB">
</g>
<g id="Volkswagen_AG">
</g>
<g id="Uni_Potsdam">
</g>
<g id="Uni_Kassel">
</g>
<g id="TUHH">
</g>
<g id="SOS_Kinderdorf">
</g>
<g id="RWTH_Aachen">
</g>
<g id="Rossmann">
	<path fill="#222222" d="M35.588,375.93v-82.26h26.447c8.938,0,15.321,1.461,19.696,4.376c4.013,3.284,6.021,8.026,6.021,14.044
		c0,6.934-3.107,12.771-9.305,17.148c-4.378,3.101-9.484,4.921-15.322,5.65c10.582,13.68,21.703,27.908,32.649,41.04l-8.391-0.184
		l-5.289,0.184c-4.74-6.382-10.215-13.132-14.961-20.063c-6.924-8.755-12.395-15.139-16.41-19.879h-4.562v39.943l-5.472-0.184
		L35.588,375.93L35.588,375.93z M46.164,331.243c1.098,0.365,2.19,0.365,2.737,0.365c1.275,0,2.369,0,2.918,0
		c9.854,0,16.777-2.186,20.791-6.383c2.918-2.92,4.746-6.931,4.746-11.492c0-5.472-2.553-9.848-6.565-12.402
		c-3.654-2.188-8.756-3.284-14.957-3.284h-9.67V331.243L46.164,331.243z M146.479,288.75c25.713,0,46.687,20.975,46.687,46.505
		c0,25.72-20.974,46.69-46.687,46.69c-25.717,0-46.871-20.971-46.871-46.69C99.607,309.724,120.762,288.75,146.479,288.75
		L146.479,288.75z M150.855,315.375h-37.571c-3.646,5.834-5.65,12.586-5.65,19.879c0,18.787,13.312,34.471,31.002,38.122
		l-17.873-16.599l3.648-8.027c-2.554-2.002-4.195-5.473-4.195-8.568c0-2.555,1.275-5.109,3.1-6.752h-4.014v19.515l-5.289-5.283
		v-14.96c0-2.188,2.555-4.555,4.564-4.555h37.932L150.855,315.375L150.855,315.375z M147.025,374.104
		c1.646,0,3.281-0.182,4.927-0.361l-18.238-16.965l6.201-13.68h-2.736l-7.115,15.321L147.025,374.104L147.025,374.104z
		 M158.152,372.286c15.683-4.929,27.173-19.703,27.173-37.031c0-7.293-2.003-14.045-5.656-19.879h-9.299v21.521h7.477
		c2.92,0,5.111,2.19,3.83,4.744l-4.92,10.942l-4.564-4.015l2.556-5.471h-2.732l-4.557,9.484l-4.379-4.197l2.551-5.287h-15.504
		l-7.113,15.321L158.152,372.286L158.152,372.286z M157.057,310.449l2.734-6.196c1.643-3.468,6.563-2.371,5.473,1.275l-1.461,4.921
		h12.223c-7.116-8.567-17.69-13.856-29.547-13.856c-11.852,0-22.612,5.289-29.729,13.856H157.057L157.057,310.449z M207.941,314.646
		c0-7.479,2.732-13.678,8.57-17.691c4.742-3.101,10.949-4.56,17.33-4.56c3.645,0,7.293,0.365,10.029,1.459
		c2.92,1.097,5.475,2.92,7.657,4.378c-0.727,0.911-1.092,2.736-1.821,4.924c-0.729,2.188-1.461,4.011-1.822,5.104h-1.094
		c-1.095-3.646-3.104-6.562-5.656-7.841c-2.916-1.823-5.838-2.92-9.123-2.92c-4.01,0-7.473,1.277-10.389,4.014
		c-2.927,2.738-4.384,6.02-4.384,10.031c0,3.83,1.457,7.113,3.648,10.031c1.824,1.825,4.381,3.648,7.479,4.742l12.405,5.289
		c4.375,1.822,7.84,4.013,10.029,6.933c2.918,3.282,4.01,7.66,4.01,12.946c0,6.568-2.553,12.588-8.021,17.693
		c-5.656,5.471-13.312,7.653-22.252,7.653c-3.65,0-7.3-0.726-10.941-1.456c-3.467-1.091-6.389-2.922-8.211-4.736
		c0.363-1.461,1.096-2.92,1.463-4.199c0.359-1.644,0.728-3.646,1.092-6.197l1.095-0.367c2.922,4.922,6.383,8.209,10.03,10.031
		c2.188,1.1,5.107,1.826,8.759,2.193c4.557,0,8.938-1.832,12.215-5.11c3.647-3.103,5.473-7.114,5.473-11.492
		c0-3.278-1.094-6.565-2.92-9.118c-2.187-2.374-5.105-4.559-9.48-6.383l-11.856-5.109c-5.469-2.188-9.297-5.467-11.67-9.664
		C208.49,322.672,207.941,319.024,207.941,314.646L207.941,314.646z M268.129,314.646c0-7.479,2.914-13.678,8.75-17.691
		c4.746-3.101,10.764-4.56,17.332-4.56c3.646,0,7.11,0.365,10.03,1.459c2.916,1.097,5.465,2.92,7.654,4.378
		c-0.725,0.911-1.092,2.736-1.82,4.924c-0.731,2.188-1.461,4.011-1.825,5.104h-1.093c-1.096-3.646-3.282-6.562-5.836-7.841
		c-2.922-1.823-5.655-2.92-8.938-2.92c-4.012,0-7.654,1.277-10.576,4.014c-2.74,2.738-4.19,6.02-4.19,10.031
		c0,3.83,1.45,7.113,3.645,10.031c1.824,1.825,4.195,3.648,7.477,4.742l12.404,5.289c4.195,1.822,7.842,4.013,10.031,6.933
		c2.916,3.282,4.01,7.66,4.01,12.946c0,6.568-2.553,12.588-8.023,17.693c-5.836,5.471-13.313,7.653-22.43,7.653
		c-3.469,0-7.112-0.726-10.764-1.456c-3.648-1.091-6.385-2.922-8.207-4.736c0.186-1.461,1.094-2.92,1.277-4.199
		c0.545-1.644,0.729-3.646,1.094-6.197l1.094-0.367c2.92,4.922,6.564,8.209,10.211,10.031c2.191,1.1,4.922,1.826,8.576,2.193
		c4.738,0,9.117-1.832,12.221-5.11c3.646-3.103,5.465-7.114,5.465-11.492c0-3.278-1.088-6.565-2.731-9.118
		c-2.191-2.374-5.105-4.559-9.486-6.383l-11.852-5.109c-5.472-2.188-9.482-5.467-11.672-9.664
		C268.852,322.672,268.129,319.024,268.129,314.646L268.129,314.646z M325.941,376.109c4.014-26.809,8.027-54.168,11.492-82.255
		h2.92c5.469,10.398,11.311,21.159,16.6,31.917c5.828,11.309,12.035,21.891,17.687,31.555l34.469-63.472h2.738
		c1.094,13.312,2.188,22.982,2.92,29.184c1.818,13.678,2.914,22.798,3.281,26.808c1.096,8.574,2.551,17.512,3.646,26.266
		l-6.197-0.364c-1.098,0-2.19,0-2.92,0c-0.186,0-1.276,0.364-2.008,0.364c-1.094-10.217-2.188-20.979-2.916-31.735
		c-1.094-10.944-2.188-20.973-3.285-30.274c-3.646,6.383-7.659,13.311-11.309,19.697c-3.83,7.296-7.479,14.227-10.758,20.244
		c-2.916,6.564-6.568,13.314-9.668,20.975h-1.095c-4.014-8.389-7.657-15.139-10.213-20.24c-1.825-4.017-5.473-10.769-10.397-20.615
		c-3.648-6.749-7.293-13.677-10.574-20.06c-0.549,6.383-1.82,13.496-2.375,20.789c-1.096,10.216-2.373,17.332-2.551,21.341
		c-0.73,7.658-1.097,14.41-1.097,19.879l-4.377-0.363L325.941,376.109L325.941,376.109z M429.723,376.109l37.387-83.714h2.918
		l36.111,83.714l-7.111-0.363l-5.471,0.363c-3.648-10.573-8.023-21.334-12.947-32.465h-30.465
		c-1.641,4.924-3.461,8.938-4.559,12.221c-3.65,8.756-6.201,15.869-7.298,20.244l-4.739-0.363L429.723,376.109L429.723,376.109z
		 M452.336,338.903h26.438l-13.67-30.642L452.336,338.903L452.336,338.903z M519.816,376.109v-82.255h4.74l57.451,62.011h1.461
		v-62.011l2.918,0.729l3.645-0.729v82.255h-4.014c-6.928-7.664-13.312-15.135-19.146-21.7c-6.565-6.747-12.95-14.047-19.516-21.343
		c-6.568-7.295-12.949-14.407-19.516-21.521h-1.457v64.564l-3.646-0.364L519.816,376.109L519.816,376.109z M613.381,376.109v-82.255
		h4.739l57.455,62.011h1.457v-62.011l2.916,0.729l3.648-0.729v82.255h-4.013c-6.932-7.664-13.313-15.135-19.149-21.7
		c-6.566-6.747-12.947-14.047-19.517-21.343c-6.565-7.295-12.948-14.407-19.516-21.521h-1.459v64.564l-3.65-0.364L613.381,376.109z"
		/>
	<rect x="0" y="-19" fill="none" width="720" height="720"/>
</g>
<g id="Rehau">
</g>
<g id="Migros">
</g>
<g id="KSB">
</g>
<g id="Franke__x26__Bornberg">
</g>
<g id="Deutschland_Card">
</g>
<g id="deutsche_See">
</g>
<g id="degewo">
</g>
<g id="Bundeswehr">
</g>
<g id="Bundesrat">
</g>
<g id="be_Berlin">
</g>
<g id="Airbus">
</g>
<g id="Siemens">
</g>
<g id="MAN">
</g>
</svg>
